# xmcd
#
# Track frame offsets:
#	150
#	19790
#	36992
#	62258
#	79385
#	104267
#	120750
#	137105
#	153472
#	174742
#	192181
#	228093
#	245315
#	264402
#	280487
#	314562
#
# Disc length: 4443 seconds
#
# Revision: 0
# Processed by: cddbd v1.5.1PL0 Copyright (c) Steve Scherf et al.
# Submitted via: dBpowerAMP V4.0
#
DISCID=d4115910
DTITLE=Curtis Mayfield - People Get Ready, The Curtis Mayfield Story Disc 3
DYEAR=1996
DGENRE=R and B
TTITLE0=Only You Babe
TTITLE1=Party Night
TTITLE2=Mr. Welfare Man
TTITLE3=Show Me Love
TTITLE4=Do do Wap is Strong in Here
TTITLE5=You Are, You Are
TTITLE6=Do It All Night
TTITLE7=You're so Good to Me
TTITLE8=Between You Baby And me (With Linda Clifford)
TTITLE9=Love's Sweet Sensation (With Linda Clifford)
TTITLE10=Love Me, Love Me Now
TTITLE11=Trippin' Out
TTITLE12=She Don't Let Nobody (But Me)
TTITLE13=Baby It's You
TTITLE14=Homeless
TTITLE15=Do Be Down
EXTD=
EXTT0=
EXTT1=
EXTT2=
EXTT3=
EXTT4=
EXTT5=
EXTT6=
EXTT7=
EXTT8=
EXTT9=
EXTT10=
EXTT11=
EXTT12=
EXTT13=
EXTT14=
EXTT15=
PLAYORDER=
